<svg width="24" height="28" viewBox="0 0 24 28" fill="none" xmlns="http://www.w3.org/2000/svg">
<path d="M21.0728 7.99939C21.0728 7.14607 21.0581 6.84606 21.0339 6.70664L21.0065 6.60541C20.9621 6.49367 20.8951 6.38574 20.8053 6.28891L20.7081 6.19582C20.6231 6.12407 20.4983 6.05583 19.9787 5.85954L19.3133 5.61519L12.2515 3.07389C12.1817 3.04875 12.128 3.02865 12.0812 3.01222C12.0462 2.99996 12.02 2.992 12 2.98546C11.98 2.992 11.9538 2.99996 11.9188 3.01222L11.7485 3.07389L4.68666 5.61519C3.86312 5.91162 3.55362 6.036 3.4028 6.12019L3.2919 6.19582C3.18691 6.28463 3.10449 6.38748 3.04496 6.49603L2.99352 6.60541C2.95315 6.70724 2.92721 6.86093 2.92721 7.99939V14.0443C2.92721 16.5593 4.36484 18.8775 6.33522 20.8478C8.28263 22.7952 10.5569 24.2053 11.7862 24.8936L11.9611 24.9914C11.976 24.9994 11.9892 25.0055 12 25.0112C12.0108 25.0055 12.024 24.9994 12.0389 24.9914C12.0851 24.9664 12.1384 24.9359 12.2138 24.8936L12.7214 24.6027C14.0067 23.8449 15.9608 22.5518 17.6648 20.8478C19.6352 18.8775 21.0728 16.5593 21.0728 14.0443V7.99939ZM23.9995 14.0443C23.9995 17.7341 21.9123 20.7761 19.7157 22.9725C17.7736 24.9147 15.5898 26.3549 14.179 27.1859L13.6245 27.5036C13.407 27.6254 13.1157 27.7994 12.7351 27.905L12.5659 27.9458C12.3026 27.9999 11.9951 28.0136 11.7096 27.9865L11.4341 27.9458C11.0856 27.874 10.8038 27.7403 10.5801 27.6188L10.3754 27.5036C9.03904 26.7552 6.50372 25.1919 4.28424 22.9725C2.08769 20.7761 0.000504263 17.7341 0.000504263 14.0443V7.99939C0.000504263 7.11646 -0.0246002 6.25764 0.279456 5.49068L0.377775 5.26262C0.624454 4.73868 0.982327 4.27741 1.42156 3.90586L1.65935 3.72201C2.23575 3.31941 2.94606 3.08252 3.71033 2.80743L10.7722 0.26497L11.154 0.133484C11.2964 0.0892714 11.4519 0.0488887 11.6136 0.0264333L11.8068 0.00665213C11.9354 -0.00221736 12.0645 -0.00221739 12.1932 0.00665213L12.3864 0.0264333L12.6231 0.0718135C12.8543 0.126925 13.0641 0.206042 13.2278 0.26497L20.9299 3.03782C21.5528 3.26931 22.1185 3.51686 22.5784 3.90586L22.7625 4.06993C23.1775 4.46658 23.506 4.94979 23.7205 5.49068L23.82 5.78274C24.0189 6.47287 23.9995 7.22675 23.9995 7.99939V14.0443Z" fill="#004DFF"/>
<path d="M15.2354 12.8802C15.4913 12.2339 16.2238 11.8648 16.9385 12.0461C17.6534 12.2276 18.0966 12.8954 17.982 13.578L17.9519 13.7143C17.2584 16.2047 14.8349 18 12 18C9.25367 18 6.89369 16.315 6.11842 13.9455L6.04811 13.7143L6.01798 13.578C5.90339 12.8954 6.34663 12.2276 7.06148 12.0461C7.77616 11.8648 8.5087 12.2339 8.76457 12.8802L8.80922 13.0134L8.88622 13.2488C9.32386 14.4065 10.534 15.2729 12 15.2729C13.5637 15.2729 14.8362 14.2869 15.1908 13.0134L15.2354 12.8802Z" fill="#004DFF"/>
</svg>
